<svg width="175" height="47" viewBox="0 0 175 47" fill="none" xmlns="http://www.w3.org/2000/svg">
<path d="M15.0312 46.4375L15.8281 42.7344C15.0469 42.7656 14.4062 42.5625 13.9062 42.125C13.4219 41.7031 13.0391 41.1406 12.7578 40.4375C12.4766 39.7344 12.2812 38.9453 12.1719 38.0703C12.0781 37.2109 12.0312 36.3594 12.0312 35.5156V31.6953C12.0312 29.8359 11.5781 28.1953 10.6719 26.7734C9.76562 25.3516 8.34375 24.2656 6.40625 23.5156C8.32812 22.7656 9.74219 21.6719 10.6484 20.2344C11.5703 18.7969 12.0312 17.1484 12.0312 15.2891V11.4688C12.0312 10.625 12.0469 9.77344 12.0781 8.91406C12.125 8.03906 12.2656 7.25 12.5 6.54688C12.7344 5.84375 13.1094 5.28125 13.625 4.85938C14.1406 4.42188 14.875 4.21875 15.8281 4.25L15.0312 0.570312C13.5156 0.570312 12.2109 0.859375 11.1172 1.4375C10.0234 2.01563 9.14062 2.75781 8.46875 3.66406C7.65625 4.71094 7.0625 5.94531 6.6875 7.36719C6.3125 8.77344 6.125 10.1406 6.125 11.4688V15.2891C6.125 17.3984 5.64062 18.9062 4.67188 19.8125C3.70312 20.7188 2.22656 21.1719 0.242188 21.1719V25.8594C2.22656 25.8594 3.70312 26.3125 4.67188 27.2188C5.64062 28.125 6.125 29.6172 6.125 31.6953V35.5156C6.125 36.75 6.28906 38.0078 6.61719 39.2891C6.96094 40.5859 7.50781 41.7734 8.25781 42.8516C8.96094 43.8828 9.875 44.7344 11 45.4062C12.1406 46.0938 13.4844 46.4375 15.0312 46.4375ZM33.0547 40.9297L45.8281 3.875H39.7578L26.9844 40.9297H33.0547ZM57.9219 35.6328C57.3984 35.6328 56.9648 35.5273 56.6211 35.3164C56.2852 35.1055 56.0195 34.8242 55.8242 34.4727C55.6211 34.1289 55.4805 33.7305 55.4023 33.2773C55.3242 32.8164 55.2852 32.3398 55.2852 31.8477V31.4961C55.2852 31.0117 55.3242 30.543 55.4023 30.0898C55.4883 29.6367 55.6328 29.2344 55.8359 28.8828C56.0312 28.5312 56.2969 28.25 56.6328 28.0391C56.9688 27.8281 57.3945 27.7227 57.9102 27.7227C58.2617 27.7227 58.5859 27.7852 58.8828 27.9102C59.1797 28.0273 59.4336 28.1875 59.6445 28.3906C59.8555 28.5938 60.0156 28.8359 60.125 29.1172C60.2344 29.3984 60.2812 29.6953 60.2656 30.0078H63.3359C63.3516 29.2578 63.2266 28.582 62.9609 27.9805C62.6953 27.3711 62.3242 26.8516 61.8477 26.4219C61.3633 26 60.7891 25.6719 60.125 25.4375C59.4609 25.2031 58.7383 25.0859 57.957 25.0859C56.9805 25.0859 56.1211 25.2539 55.3789 25.5898C54.6445 25.9258 54.0273 26.3828 53.5273 26.9609C53.0273 27.5391 52.6523 28.2188 52.4023 29C52.1523 29.7734 52.0273 30.6055 52.0273 31.4961V31.8477C52.0273 32.7383 52.1523 33.5742 52.4023 34.3555C52.6602 35.1289 53.0391 35.8047 53.5391 36.3828C54.0312 36.9609 54.6484 37.418 55.3906 37.7539C56.1328 38.082 56.9961 38.2461 57.9805 38.2461C58.707 38.2461 59.3945 38.1328 60.043 37.9062C60.6992 37.6719 61.2734 37.3516 61.7656 36.9453C62.2578 36.5391 62.6445 36.0547 62.9258 35.4922C63.2148 34.9297 63.3516 34.3203 63.3359 33.6641H60.2656C60.2812 33.9609 60.2266 34.2305 60.1016 34.4727C59.9844 34.7148 59.8164 34.9219 59.5977 35.0938C59.3789 35.2656 59.125 35.3984 58.8359 35.4922C58.5469 35.5859 58.2422 35.6328 57.9219 35.6328ZM66.2773 31.543V31.7891C66.2773 32.7188 66.4102 33.5781 66.6758 34.3672C66.9414 35.1484 67.332 35.8281 67.8477 36.4062C68.3555 36.9844 68.9805 37.4375 69.7227 37.7656C70.4727 38.0859 71.3242 38.2461 72.2773 38.2461C73.2227 38.2461 74.0664 38.0859 74.8086 37.7656C75.5508 37.4375 76.1758 36.9844 76.6836 36.4062C77.1914 35.8281 77.5781 35.1484 77.8438 34.3672C78.1094 33.5781 78.2422 32.7188 78.2422 31.7891V31.543C78.2422 30.6211 78.1094 29.7695 77.8438 28.9883C77.5781 28.1992 77.1914 27.5156 76.6836 26.9375C76.168 26.3594 75.5391 25.9062 74.7969 25.5781C74.0547 25.25 73.207 25.0859 72.2539 25.0859C71.3008 25.0859 70.4531 25.25 69.7109 25.5781C68.9766 25.9062 68.3555 26.3594 67.8477 26.9375C67.332 27.5156 66.9414 28.1992 66.6758 28.9883C66.4102 29.7695 66.2773 30.6211 66.2773 31.543ZM69.5352 31.7891V31.543C69.5352 31.0273 69.5859 30.5391 69.6875 30.0781C69.7891 29.6172 69.9492 29.2109 70.168 28.8594C70.3867 28.5078 70.668 28.2305 71.0117 28.0273C71.3555 27.8242 71.7695 27.7227 72.2539 27.7227C72.7461 27.7227 73.1641 27.8242 73.5078 28.0273C73.8516 28.2305 74.1328 28.5078 74.3516 28.8594C74.5625 29.2109 74.7188 29.6172 74.8203 30.0781C74.9219 30.5391 74.9727 31.0273 74.9727 31.543V31.7891C74.9727 32.3203 74.9219 32.8203 74.8203 33.2891C74.7188 33.75 74.5625 34.1523 74.3516 34.4961C74.1328 34.8477 73.8516 35.125 73.5078 35.3281C73.1641 35.5312 72.7539 35.6328 72.2773 35.6328C71.7852 35.6328 71.3633 35.5312 71.0117 35.3281C70.668 35.125 70.3867 34.8477 70.168 34.4961C69.9492 34.1523 69.7891 33.75 69.6875 33.2891C69.5859 32.8203 69.5352 32.3203 69.5352 31.7891ZM80.7969 31.5664V31.8125C80.7969 32.7344 80.9102 33.5898 81.1367 34.3789C81.3633 35.1602 81.6914 35.8359 82.1211 36.4062C82.543 36.9766 83.0586 37.4258 83.668 37.7539C84.2852 38.0742 84.9805 38.2344 85.7539 38.2344C86.4648 38.2344 87.0898 38.0977 87.6289 37.8242C88.168 37.5508 88.6367 37.168 89.0352 36.6758L89.1992 38H92.1406V20H88.8711V26.457C88.4805 26.0195 88.0312 25.6836 87.5234 25.4492C87.0234 25.207 86.4414 25.0859 85.7773 25.0859C84.9883 25.0859 84.2852 25.2422 83.668 25.5547C83.0586 25.8672 82.5391 26.3086 82.1094 26.8789C81.6797 27.4492 81.3516 28.1328 81.125 28.9297C80.9062 29.7266 80.7969 30.6055 80.7969 31.5664ZM84.0547 31.8125V31.5664C84.0547 31.0352 84.1016 30.5391 84.1953 30.0781C84.2891 29.6094 84.4375 29.1992 84.6406 28.8477C84.8438 28.5039 85.1055 28.2344 85.4258 28.0391C85.7539 27.8359 86.1484 27.7344 86.6094 27.7344C87.1641 27.7344 87.625 27.8555 87.9922 28.0977C88.3594 28.332 88.6523 28.6641 88.8711 29.0938V34.2266C88.6523 34.6484 88.3555 34.9805 87.9805 35.2227C87.6133 35.4648 87.1484 35.5859 86.5859 35.5859C86.125 35.5859 85.7344 35.4883 85.4141 35.293C85.0938 35.0977 84.832 34.8281 84.6289 34.4844C84.4258 34.1484 84.2773 33.7539 84.1836 33.3008C84.0977 32.8398 84.0547 32.3438 84.0547 31.8125ZM103.473 38H106.777V37.8008C106.613 37.4805 106.488 37.0977 106.402 36.6523C106.316 36.207 106.273 35.6445 106.273 34.9648V29.5273C106.273 28.793 106.137 28.1484 105.863 27.5938C105.59 27.0312 105.211 26.5664 104.727 26.1992C104.242 25.832 103.668 25.5547 103.004 25.3672C102.348 25.1797 101.637 25.0859 100.871 25.0859C100.02 25.0859 99.2617 25.1953 98.5977 25.4141C97.9414 25.625 97.3867 25.9141 96.9336 26.2812C96.4727 26.6484 96.1211 27.0742 95.8789 27.5586C95.6445 28.043 95.5273 28.5547 95.5273 29.0938H98.7852C98.7852 28.8672 98.8164 28.6602 98.8789 28.4727C98.9492 28.2852 99.0547 28.125 99.1953 27.9922C99.3516 27.8438 99.5547 27.7305 99.8047 27.6523C100.055 27.5664 100.352 27.5234 100.695 27.5234C101.086 27.5234 101.426 27.5742 101.715 27.6758C102.012 27.7695 102.258 27.9062 102.453 28.0859C102.641 28.2578 102.781 28.4648 102.875 28.707C102.969 28.9414 103.016 29.207 103.016 29.5039V30.2539H101.199C100.262 30.2539 99.4297 30.3398 98.7031 30.5117C97.9844 30.6758 97.3789 30.918 96.8867 31.2383C96.3398 31.5898 95.9297 32.0391 95.6562 32.5859C95.3828 33.125 95.2461 33.7461 95.2461 34.4492C95.2461 34.9961 95.3555 35.5039 95.5742 35.9727C95.793 36.4336 96.0977 36.832 96.4883 37.168C96.8789 37.5039 97.3438 37.7656 97.8828 37.9531C98.4297 38.1406 99.0273 38.2344 99.6758 38.2344C100.074 38.2344 100.445 38.1953 100.789 38.1172C101.133 38.0469 101.449 37.9453 101.738 37.8125C102.02 37.6875 102.277 37.5391 102.512 37.3672C102.746 37.1953 102.953 37.0117 103.133 36.8164C103.172 37.043 103.219 37.2578 103.273 37.4609C103.328 37.6641 103.395 37.8438 103.473 38ZM100.367 35.7148C100.062 35.7148 99.793 35.6797 99.5586 35.6094C99.332 35.5312 99.1406 35.4297 98.9844 35.3047C98.8281 35.1719 98.707 35.0117 98.6211 34.8242C98.543 34.6289 98.5039 34.418 98.5039 34.1914C98.5039 33.9023 98.5586 33.6367 98.668 33.3945C98.7773 33.1445 98.9453 32.9297 99.1719 32.75C99.3984 32.5781 99.6914 32.4453 100.051 32.3516C100.41 32.25 100.844 32.1992 101.352 32.1992H103.016V34.3789C102.922 34.543 102.793 34.707 102.629 34.8711C102.465 35.0273 102.27 35.168 102.043 35.293C101.816 35.418 101.562 35.5195 101.281 35.5977C101 35.6758 100.695 35.7148 100.367 35.7148ZM109.965 38H113.234V28.9883C113.344 28.8164 113.465 28.6602 113.598 28.5195C113.73 28.3789 113.879 28.2578 114.043 28.1562C114.246 28.0156 114.477 27.9102 114.734 27.8398C115 27.7695 115.289 27.7344 115.602 27.7344C115.977 27.7344 116.312 27.7734 116.609 27.8516C116.906 27.9219 117.16 28.0508 117.371 28.2383C117.582 28.4258 117.742 28.6836 117.852 29.0117C117.969 29.332 118.027 29.7422 118.027 30.2422V38H121.285V30.1953C121.285 29.2734 121.176 28.4922 120.957 27.8516C120.746 27.2031 120.449 26.6719 120.066 26.2578C119.676 25.8516 119.215 25.5547 118.684 25.3672C118.152 25.1797 117.566 25.0859 116.926 25.0859C116.426 25.0859 115.953 25.1562 115.508 25.2969C115.062 25.4375 114.652 25.6406 114.277 25.9062C114.059 26.0625 113.852 26.2383 113.656 26.4336C113.461 26.6289 113.281 26.8438 113.117 27.0781L112.918 25.3203H109.965V38ZM124.039 31.5664V31.8125C124.039 32.7344 124.152 33.5898 124.379 34.3789C124.605 35.1602 124.934 35.8359 125.363 36.4062C125.785 36.9766 126.301 37.4258 126.91 37.7539C127.527 38.0742 128.223 38.2344 128.996 38.2344C129.707 38.2344 130.332 38.0977 130.871 37.8242C131.41 37.5508 131.879 37.168 132.277 36.6758L132.441 38H135.383V20H132.113V26.457C131.723 26.0195 131.273 25.6836 130.766 25.4492C130.266 25.207 129.684 25.0859 129.02 25.0859C128.23 25.0859 127.527 25.2422 126.91 25.5547C126.301 25.8672 125.781 26.3086 125.352 26.8789C124.922 27.4492 124.594 28.1328 124.367 28.9297C124.148 29.7266 124.039 30.6055 124.039 31.5664ZM127.297 31.8125V31.5664C127.297 31.0352 127.344 30.5391 127.438 30.0781C127.531 29.6094 127.68 29.1992 127.883 28.8477C128.086 28.5039 128.348 28.2344 128.668 28.0391C128.996 27.8359 129.391 27.7344 129.852 27.7344C130.406 27.7344 130.867 27.8555 131.234 28.0977C131.602 28.332 131.895 28.6641 132.113 29.0938V34.2266C131.895 34.6484 131.598 34.9805 131.223 35.2227C130.855 35.4648 130.391 35.5859 129.828 35.5859C129.367 35.5859 128.977 35.4883 128.656 35.293C128.336 35.0977 128.074 34.8281 127.871 34.4844C127.668 34.1484 127.52 33.7539 127.426 33.3008C127.34 32.8398 127.297 32.3438 127.297 31.8125ZM138.348 31.543V31.7891C138.348 32.7188 138.48 33.5781 138.746 34.3672C139.012 35.1484 139.402 35.8281 139.918 36.4062C140.426 36.9844 141.051 37.4375 141.793 37.7656C142.543 38.0859 143.395 38.2461 144.348 38.2461C145.293 38.2461 146.137 38.0859 146.879 37.7656C147.621 37.4375 148.246 36.9844 148.754 36.4062C149.262 35.8281 149.648 35.1484 149.914 34.3672C150.18 33.5781 150.312 32.7188 150.312 31.7891V31.543C150.312 30.6211 150.18 29.7695 149.914 28.9883C149.648 28.1992 149.262 27.5156 148.754 26.9375C148.238 26.3594 147.609 25.9062 146.867 25.5781C146.125 25.25 145.277 25.0859 144.324 25.0859C143.371 25.0859 142.523 25.25 141.781 25.5781C141.047 25.9062 140.426 26.3594 139.918 26.9375C139.402 27.5156 139.012 28.1992 138.746 28.9883C138.48 29.7695 138.348 30.6211 138.348 31.543ZM141.605 31.7891V31.543C141.605 31.0273 141.656 30.5391 141.758 30.0781C141.859 29.6172 142.02 29.2109 142.238 28.8594C142.457 28.5078 142.738 28.2305 143.082 28.0273C143.426 27.8242 143.84 27.7227 144.324 27.7227C144.816 27.7227 145.234 27.8242 145.578 28.0273C145.922 28.2305 146.203 28.5078 146.422 28.8594C146.633 29.2109 146.789 29.6172 146.891 30.0781C146.992 30.5391 147.043 31.0273 147.043 31.543V31.7891C147.043 32.3203 146.992 32.8203 146.891 33.2891C146.789 33.75 146.633 34.1523 146.422 34.4961C146.203 34.8477 145.922 35.125 145.578 35.3281C145.234 35.5312 144.824 35.6328 144.348 35.6328C143.855 35.6328 143.434 35.5312 143.082 35.3281C142.738 35.125 142.457 34.8477 142.238 34.4961C142.02 34.1523 141.859 33.75 141.758 33.2891C141.656 32.8203 141.605 32.3203 141.605 31.7891ZM159.336 42.7344L160.133 46.4375C161.68 46.4375 163.016 46.1016 164.141 45.4297C165.281 44.7734 166.203 43.9062 166.906 42.8281C167.609 41.7969 168.141 40.625 168.5 39.3125C168.859 38 169.039 36.7344 169.039 35.5156V31.6953C169.039 30.9609 169.094 30.3047 169.203 29.7266C169.328 29.1328 169.508 28.6172 169.742 28.1797C170.18 27.3672 170.828 26.7812 171.688 26.4219C172.547 26.0469 173.625 25.8594 174.922 25.8594V21.1719C173.766 21.1719 172.773 21.0234 171.945 20.7266C171.133 20.4297 170.5 19.9609 170.047 19.3203C169.703 18.8516 169.445 18.2812 169.273 17.6094C169.117 16.9375 169.039 16.1641 169.039 15.2891V11.4688C169.039 10.2812 168.891 9.05469 168.594 7.78906C168.312 6.50781 167.828 5.35156 167.141 4.32031C166.422 3.17969 165.492 2.27344 164.352 1.60156C163.211 0.914063 161.805 0.570312 160.133 0.570312L159.336 4.25C160.289 4.21875 161.023 4.42188 161.539 4.85938C162.055 5.28125 162.43 5.84375 162.664 6.54688C162.898 7.25 163.031 8.03906 163.062 8.91406C163.109 9.77344 163.133 10.625 163.133 11.4688V15.2891C163.133 16.3672 163.281 17.3906 163.578 18.3594C163.875 19.3125 164.336 20.1797 164.961 20.9609C165.383 21.4922 165.883 21.9766 166.461 22.4141C167.039 22.8516 167.703 23.2266 168.453 23.5391C167.531 23.9297 166.734 24.4062 166.062 24.9688C165.406 25.5156 164.859 26.1406 164.422 26.8438C163.984 27.5469 163.656 28.3047 163.438 29.1172C163.234 29.9297 163.133 30.7891 163.133 31.6953V35.5156C163.133 36.3594 163.078 37.2109 162.969 38.0703C162.859 38.9453 162.664 39.7344 162.383 40.4375C162.102 41.1406 161.711 41.7031 161.211 42.125C160.727 42.5625 160.102 42.7656 159.336 42.7344Z" fill="#F2C94C"/>
</svg>
