<svg width="75" height="47" viewBox="0 0 75 47" fill="none" xmlns="http://www.w3.org/2000/svg">
<path d="M15.0312 46.4375L15.8281 42.7344C15.0469 42.7656 14.4062 42.5625 13.9062 42.125C13.4219 41.7031 13.0391 41.1406 12.7578 40.4375C12.4766 39.7344 12.2812 38.9453 12.1719 38.0703C12.0781 37.2109 12.0312 36.3594 12.0312 35.5156V31.6953C12.0312 29.8359 11.5781 28.1953 10.6719 26.7734C9.76562 25.3516 8.34375 24.2656 6.40625 23.5156C8.32812 22.7656 9.74219 21.6719 10.6484 20.2344C11.5703 18.7969 12.0312 17.1484 12.0312 15.2891V11.4688C12.0312 10.625 12.0469 9.77344 12.0781 8.91406C12.125 8.03906 12.2656 7.25 12.5 6.54688C12.7344 5.84375 13.1094 5.28125 13.625 4.85938C14.1406 4.42188 14.875 4.21875 15.8281 4.25L15.0312 0.570312C13.5156 0.570312 12.2109 0.859375 11.1172 1.4375C10.0234 2.01563 9.14062 2.75781 8.46875 3.66406C7.65625 4.71094 7.0625 5.94531 6.6875 7.36719C6.3125 8.77344 6.125 10.1406 6.125 11.4688V15.2891C6.125 17.3984 5.64062 18.9062 4.67188 19.8125C3.70312 20.7188 2.22656 21.1719 0.242188 21.1719V25.8594C2.22656 25.8594 3.70312 26.3125 4.67188 27.2188C5.64062 28.125 6.125 29.6172 6.125 31.6953V35.5156C6.125 36.75 6.28906 38.0078 6.61719 39.2891C6.96094 40.5859 7.50781 41.7734 8.25781 42.8516C8.96094 43.8828 9.875 44.7344 11 45.4062C12.1406 46.0938 13.4844 46.4375 15.0312 46.4375ZM33.0547 40.9297L45.8281 3.875H39.7578L26.9844 40.9297H33.0547ZM58.4375 42.7344L59.2344 46.4375C60.7812 46.4375 62.1172 46.1016 63.2422 45.4297C64.3828 44.7734 65.3047 43.9062 66.0078 42.8281C66.7109 41.7969 67.2422 40.625 67.6016 39.3125C67.9609 38 68.1406 36.7344 68.1406 35.5156V31.6953C68.1406 30.9609 68.1953 30.3047 68.3047 29.7266C68.4297 29.1328 68.6094 28.6172 68.8438 28.1797C69.2812 27.3672 69.9297 26.7812 70.7891 26.4219C71.6484 26.0469 72.7266 25.8594 74.0234 25.8594V21.1719C72.8672 21.1719 71.875 21.0234 71.0469 20.7266C70.2344 20.4297 69.6016 19.9609 69.1484 19.3203C68.8047 18.8516 68.5469 18.2812 68.375 17.6094C68.2188 16.9375 68.1406 16.1641 68.1406 15.2891V11.4688C68.1406 10.2812 67.9922 9.05469 67.6953 7.78906C67.4141 6.50781 66.9297 5.35156 66.2422 4.32031C65.5234 3.17969 64.5938 2.27344 63.4531 1.60156C62.3125 0.914063 60.9062 0.570312 59.2344 0.570312L58.4375 4.25C59.3906 4.21875 60.125 4.42188 60.6406 4.85938C61.1562 5.28125 61.5312 5.84375 61.7656 6.54688C62 7.25 62.1328 8.03906 62.1641 8.91406C62.2109 9.77344 62.2344 10.625 62.2344 11.4688V15.2891C62.2344 16.3672 62.3828 17.3906 62.6797 18.3594C62.9766 19.3125 63.4375 20.1797 64.0625 20.9609C64.4844 21.4922 64.9844 21.9766 65.5625 22.4141C66.1406 22.8516 66.8047 23.2266 67.5547 23.5391C66.6328 23.9297 65.8359 24.4062 65.1641 24.9688C64.5078 25.5156 63.9609 26.1406 63.5234 26.8438C63.0859 27.5469 62.7578 28.3047 62.5391 29.1172C62.3359 29.9297 62.2344 30.7891 62.2344 31.6953V35.5156C62.2344 36.3594 62.1797 37.2109 62.0703 38.0703C61.9609 38.9453 61.7656 39.7344 61.4844 40.4375C61.2031 41.1406 60.8125 41.7031 60.3125 42.125C59.8281 42.5625 59.2031 42.7656 58.4375 42.7344Z" fill="#F2C94C"/>
</svg>
